# xmcd
#
# Track frame offsets:
#	150
#	12172
#	23915
#	34852
#	47087
#	59312
#	73500
#	86842
#	100907
#	114232
#	127702
#	141795
#	155582
#	169022
#	180730
#	194785
#	209877
#	224402
#	242760
#	255825
#
# Disc length: 3599 seconds
#
# Revision: 1
# Processed by: cddbd v1.4PL0 Copyright (c) Steve Scherf et al.
# Submitted via: audiograbber 1.80.04
#
DISCID=1e0e0d14
DTITLE=Ella Fitzgerald - Ella Swings
DYEAR=1900
DGENRE=
TTITLE0=A-Tisket, A-Tasket
TTITLE1=Sing me A Swing Song (And Let Me Dance)
TTITLE2=The Muffin Man
TTITLE3=My Last Affair
TTITLE4=All Over Nothing At All
TTITLE5=My Heart Belongs To Daddy
TTITLE6=Just A Simple Melody
TTITLE7=McPherson Is Rehearsin' (To Swing)
TTITLE8=I Got It Bad (And That Ain't Good)
TTITLE9=It's Wonderful
TTITLE10=Bei Mir Bist Du Schon
TTITLE11=T'Ain't What You Do (It's The Way That Cha Do It)
TTITLE12=You'll Have To Swing It ('Mr. Paganini')
TTITLE13=I Found My Yellow Basket
TTITLE14=Crying My Heart Out For You
TTITLE15=I Got A Guy
TTITLE16=Dedicated To You
TTITLE17=Hallelujah!
TTITLE18=Organ Grinder's Swing
TTITLE19=Five O'Clock
EXTD=
EXTT0=
EXTT1=
EXTT2=
EXTT3=
EXTT4=
EXTT5=
EXTT6=
EXTT7=
EXTT8=
EXTT9=
EXTT10=
EXTT11=
EXTT12=
EXTT13=
EXTT14=
EXTT15=
EXTT16=
EXTT17=
EXTT18=
EXTT19=
PLAYORDER=
